<svg width="44" height="44" viewBox="0 0 44 44" fill="none" xmlns="http://www.w3.org/2000/svg">
<mask id="mask0_38_130" style="mask-type:alpha" maskUnits="userSpaceOnUse" x="0" y="0" width="44" height="44">
<rect width="44" height="44" fill="#D9D9D9"/>
</mask>
<g mask="url(#mask0_38_130)">
<path d="M22.342 31.0221L37.5727 15.7914C37.655 15.7091 37.6961 15.6092 37.6961 15.4917C37.6961 15.3742 37.655 15.2743 37.5727 15.192L35.7888 13.4081C35.7065 13.3258 35.6066 13.2846 35.4891 13.2846C35.3715 13.2846 35.2716 13.3258 35.1894 13.4081L19.9586 28.6388L22.342 31.0221ZM10.8378 34.3397C8.11132 34.1869 6.06413 33.5805 4.69621 32.5205C3.32824 31.4605 2.64426 29.9609 2.64426 28.0218C2.64426 26.165 3.42342 24.659 4.98176 23.5037C6.54009 22.3485 8.70601 21.6487 11.4795 21.4042C12.8122 21.289 13.8117 21.0481 14.4781 20.6814C15.1445 20.3148 15.4776 19.8071 15.4776 19.1583C15.4776 18.2581 15.0269 17.5712 14.1256 17.0976C13.2242 16.624 11.7463 16.2838 9.69205 16.0769L9.94234 13.3446C12.7605 13.6126 14.8459 14.2201 16.1985 15.1674C17.5512 16.1146 18.2275 17.4449 18.2275 19.1583C18.2275 20.6133 17.6687 21.7667 16.5511 22.6187C15.4335 23.4708 13.8111 23.9826 11.684 24.1541C9.58741 24.3304 8.01496 24.7394 6.96666 25.3811C5.91836 26.0228 5.39421 26.903 5.39421 28.0218C5.39421 29.1618 5.8308 30.0097 6.70399 30.5656C7.57718 31.1215 8.99272 31.4629 10.9506 31.5898L10.8378 34.3397ZM22.7721 34.4843L16.4965 28.2087L33.617 11.1058C34.1576 10.5653 34.7893 10.2979 35.512 10.3038C36.2347 10.3097 36.8664 10.577 37.407 11.1058L39.8749 13.5737C40.4155 14.1143 40.6858 14.7489 40.6858 15.4776C40.6858 16.2062 40.4155 16.8408 39.8749 17.3814L22.7721 34.4843ZM16.6481 35.75C16.2344 35.8487 15.8701 35.7405 15.5551 35.4256C15.2402 35.1106 15.1321 34.7463 15.2308 34.3327L16.4965 28.2087L22.7721 34.4843L16.6481 35.75Z" fill="#0C0B4A"/>
</g>
</svg>
