<svg width="44" height="44" viewBox="0 0 44 44" fill="none" xmlns="http://www.w3.org/2000/svg">
<mask id="mask0_45_1057" style="mask-type:alpha" maskUnits="userSpaceOnUse" x="0" y="0" width="44" height="44">
<rect width="44" height="44" fill="#D9D9D9"/>
</mask>
<g mask="url(#mask0_45_1057)">
<path d="M6.83987 12.8333V6.06416L13.609 9.44872L6.83987 12.8333ZM32.2243 12.8333V6.06416L38.9935 9.44872L32.2243 12.8333ZM20.3783 11.141V4.37186L27.1474 7.75642L20.3783 11.141ZM19.7083 39.681C17.4919 39.6082 15.4564 39.4231 13.6019 39.1258C11.7475 38.8284 10.1439 38.4559 8.79122 38.0081C7.43856 37.5604 6.38146 37.048 5.61992 36.471C4.85841 35.8939 4.47766 35.2893 4.47766 34.6571V18.8622C4.47766 18.1571 4.92658 17.5025 5.82443 16.8984C6.7223 16.2944 7.9551 15.7638 9.52281 15.3066C11.0906 14.8495 12.9427 14.4875 15.0792 14.2208C17.2157 13.954 19.5227 13.8206 22 13.8206C24.4774 13.8206 26.7843 13.954 28.9209 14.2208C31.0574 14.4875 32.9095 14.8495 34.4772 15.3066C36.0449 15.7638 37.2777 16.2944 38.1756 16.8984C39.0735 17.5025 39.5224 18.1571 39.5224 18.8622V34.6571C39.5224 35.2893 39.1416 35.8939 38.3801 36.471C37.6186 37.048 36.5615 37.5604 35.2088 38.0081C33.8562 38.4559 32.2526 38.8284 30.3981 39.1258C28.5436 39.4231 26.5082 39.6082 24.2917 39.681V32.3653H19.7083V39.681ZM22 21.1539C24.9992 21.1539 27.6992 20.9459 30.1002 20.5298C32.5012 20.1138 34.3492 19.5944 35.6443 18.9715C35.4445 18.5719 34.1336 18.0719 31.7114 17.4713C29.2893 16.8708 26.0522 16.5705 22 16.5705C17.9479 16.5705 14.7107 16.8708 12.2886 17.4713C9.86648 18.0719 8.55551 18.5719 8.35571 18.9715C9.65081 19.5944 11.4313 20.1138 13.6971 20.5298C15.9629 20.9459 18.7305 21.1539 22 21.1539ZM16.9584 36.7266V29.6154H27.0416V36.7266C29.7094 36.4939 31.8724 36.1232 33.5306 35.6143C35.1889 35.1054 36.2695 34.6265 36.7725 34.1776V21.4923C34.9274 22.2938 32.7544 22.8961 30.2536 23.2992C27.7527 23.7023 25.0015 23.9039 22 23.9039C18.9985 23.9039 16.2473 23.7023 13.7465 23.2992C11.2456 22.8961 9.07267 22.2938 7.22757 21.4923V34.1776C7.73058 34.6265 8.77593 35.1054 10.3636 35.6143C11.9514 36.1232 14.1496 36.4939 16.9584 36.7266Z" fill="#1C1B1F"/>
</g>
</svg>
