<svg width="44" height="44" viewBox="0 0 44 44" fill="none" xmlns="http://www.w3.org/2000/svg">
<mask id="mask0_45_1060" style="mask-type:alpha" maskUnits="userSpaceOnUse" x="0" y="0" width="44" height="44">
<rect width="44" height="44" fill="#D9D9D9"/>
</mask>
<g mask="url(#mask0_45_1060)">
<path d="M7.89749 39.4166C6.97141 39.4166 6.18754 39.0958 5.54587 38.4541C4.90421 37.8124 4.58337 37.0286 4.58337 36.1025V18.8975C4.58337 17.9714 4.90421 17.1875 5.54587 16.5459C6.18754 15.9042 6.97141 15.5834 7.89749 15.5834H36.1025C37.0286 15.5834 37.8125 15.9042 38.4541 16.5459C39.0958 17.1875 39.4166 17.9714 39.4166 18.8975V36.1025C39.4166 37.0286 39.0958 37.8124 38.4541 38.4541C37.8125 39.0958 37.0286 39.4166 36.1025 39.4166H7.89749ZM7.89749 36.6667H36.1025C36.2435 36.6667 36.3728 36.6079 36.4904 36.4904C36.6079 36.3728 36.6667 36.2435 36.6667 36.1025V18.8975C36.6667 18.7564 36.6079 18.6271 36.4904 18.5096C36.3728 18.3921 36.2435 18.3333 36.1025 18.3333H7.89749C7.75645 18.3333 7.62715 18.3921 7.5096 18.5096C7.39209 18.6271 7.33333 18.7564 7.33333 18.8975V36.1025C7.33333 36.2435 7.39209 36.3728 7.5096 36.4904C7.62715 36.6079 7.75645 36.6667 7.89749 36.6667ZM18.7917 33.9871L28.5224 27.5L18.7917 21.0129V33.9871ZM7.79171 13.0449V10.2949H36.2083V13.0449H7.79171ZM13.2917 7.75641V5.0065H30.7083V7.75641H13.2917Z" fill="#0C0B4A"/>
</g>
</svg>
