<svg width="24" height="24" viewBox="0 0 24 24" fill="none" xmlns="http://www.w3.org/2000/svg">
<mask id="mask0_51_2343" style="mask-type:alpha" maskUnits="userSpaceOnUse" x="0" y="0" width="24" height="24">
<rect width="24" height="24" fill="#D9D9D9"/>
</mask>
<g mask="url(#mask0_51_2343)">
<path d="M12 21C11.7 21 11.4125 20.9458 11.1375 20.8375C10.8625 20.7292 10.6167 20.5667 10.4 20.35L4.075 14H6.9L11.825 18.925C11.8583 18.9583 11.8875 18.9792 11.9125 18.9875C11.9375 18.9958 11.9667 19 12 19C12.0333 19 12.0625 18.9958 12.0875 18.9875C12.1125 18.9792 12.1417 18.9583 12.175 18.925L18.85 12.225C19.2333 11.8417 19.525 11.3875 19.725 10.8625C19.925 10.3375 20.025 9.8 20.025 9.25C19.9917 8.1 19.6083 7.1125 18.875 6.2875C18.1417 5.4625 17.225 5.05 16.125 5.05C15.6083 5.05 15.1125 5.15 14.6375 5.35C14.1625 5.55 13.75 5.84167 13.4 6.225L12.725 6.95C12.6417 7.05 12.5333 7.12917 12.4 7.1875C12.2667 7.24583 12.1333 7.275 12 7.275C11.8667 7.275 11.7333 7.24583 11.6 7.1875C11.4667 7.12917 11.35 7.05 11.25 6.95L10.575 6.225C10.225 5.84167 9.81667 5.54167 9.35 5.325C8.88333 5.10833 8.38333 5 7.85 5C6.95 5 6.17083 5.2875 5.5125 5.8625C4.85417 6.4375 4.40833 7.15 4.175 8H2.125C2.40833 6.58333 3.07083 5.39583 4.1125 4.4375C5.15417 3.47917 6.4 3 7.85 3C8.65 3 9.40417 3.15833 10.1125 3.475C10.8208 3.79167 11.45 4.23333 12 4.8C12.5333 4.23333 13.1542 3.79167 13.8625 3.475C14.5708 3.15833 15.325 3 16.125 3C17.7917 3 19.1875 3.61667 20.3125 4.85C21.4375 6.08333 22 7.55 22 9.25C22 10.0667 21.8583 10.85 21.575 11.6C21.2917 12.35 20.8667 13.0167 20.3 13.6L13.575 20.35C13.3583 20.5667 13.1167 20.7292 12.85 20.8375C12.5833 20.9458 12.3 21 12 21ZM11.875 12H2V10H15.875C16.1583 10 16.3958 9.90417 16.5875 9.7125C16.7792 9.52083 16.875 9.28333 16.875 9C16.875 8.71667 16.7792 8.47917 16.5875 8.2875C16.3958 8.09583 16.1583 8 15.875 8C15.6417 8 15.4333 8.0625 15.25 8.1875C15.0667 8.3125 14.95 8.49167 14.9 8.725L12.975 8.2C13.1583 7.55 13.5167 7.02083 14.05 6.6125C14.5833 6.20417 15.1917 6 15.875 6C16.7083 6 17.4167 6.29167 18 6.875C18.5833 7.45833 18.875 8.16667 18.875 9C18.875 9.83333 18.5833 10.5417 18 11.125C17.4167 11.7083 16.7083 12 15.875 12H14.7C14.75 12.1667 14.7917 12.3292 14.825 12.4875C14.8583 12.6458 14.875 12.8167 14.875 13C14.875 13.8333 14.5833 14.5417 14 15.125C13.4167 15.7083 12.7083 16 11.875 16C11.1917 16 10.5833 15.7958 10.05 15.3875C9.51667 14.9792 9.15833 14.45 8.975 13.8L10.9 13.275C10.95 13.5083 11.0667 13.6875 11.25 13.8125C11.4333 13.9375 11.6417 14 11.875 14C12.1583 14 12.3958 13.9042 12.5875 13.7125C12.7792 13.5208 12.875 13.2833 12.875 13C12.875 12.7167 12.7792 12.4792 12.5875 12.2875C12.3958 12.0958 12.1583 12 11.875 12Z" fill="#0C0B4A"/>
</g>
</svg>
