<svg width="24" height="24" viewBox="0 0 24 24" fill="none" xmlns="http://www.w3.org/2000/svg">
<mask id="mask0_51_2347" style="mask-type:alpha" maskUnits="userSpaceOnUse" x="0" y="0" width="24" height="24">
<rect width="24" height="24" fill="#D9D9D9"/>
</mask>
<g mask="url(#mask0_51_2347)">
<path d="M2 17V7H4V17H2ZM5 19V9C5 7.9 5.39167 6.95833 6.175 6.175C6.95833 5.39167 7.9 5 9 5H15C16.1 5 17.0417 5.39167 17.825 6.175C18.6083 6.95833 19 7.9 19 9V19H5ZM20 17V7H22V17H20ZM7 17H11V13H9V11H11V7H9C8.45 7 7.97917 7.19583 7.5875 7.5875C7.19583 7.97917 7 8.45 7 9V17ZM13 17H17V9C17 8.45 16.8042 7.97917 16.4125 7.5875C16.0208 7.19583 15.55 7 15 7H13V11H15V13H13V17Z" fill="#0C0B4A"/>
</g>
</svg>
