<svg width="24" height="24" viewBox="0 0 24 24" fill="none" xmlns="http://www.w3.org/2000/svg">
<mask id="mask0_51_2315" style="mask-type:alpha" maskUnits="userSpaceOnUse" x="0" y="0" width="24" height="24">
<rect width="24" height="24" fill="#D9D9D9"/>
</mask>
<g mask="url(#mask0_51_2315)">
<path d="M3.97498 19.8L3.12498 19.45C2.60831 19.2333 2.26248 18.8583 2.08748 18.325C1.91248 17.7917 1.94164 17.2667 2.17498 16.75L3.97498 12.85V19.8ZM7.97498 22C7.42498 22 6.95414 21.8042 6.56248 21.4125C6.17081 21.0208 5.97498 20.55 5.97498 20V14L8.62498 21.35C8.67498 21.4667 8.72498 21.5792 8.77498 21.6875C8.82498 21.7958 8.89164 21.9 8.97498 22H7.97498ZM13.125 21.9C12.5916 22.1 12.075 22.075 11.575 21.825C11.075 21.575 10.725 21.1833 10.525 20.65L6.07498 8.45001C5.87498 7.91667 5.89164 7.39584 6.12498 6.88751C6.35831 6.37917 6.74164 6.03334 7.27498 5.85001L14.825 3.10001C15.3583 2.90001 15.875 2.92501 16.375 3.17501C16.875 3.42501 17.225 3.81667 17.425 4.35001L21.875 16.55C22.075 17.0833 22.0583 17.6042 21.825 18.1125C21.5916 18.6208 21.2083 18.9667 20.675 19.15L13.125 21.9ZM10.975 10C11.2583 10 11.4958 9.90418 11.6875 9.71251C11.8791 9.52084 11.975 9.28334 11.975 9.00001C11.975 8.71667 11.8791 8.47917 11.6875 8.28751C11.4958 8.09584 11.2583 8.00001 10.975 8.00001C10.6916 8.00001 10.4541 8.09584 10.2625 8.28751C10.0708 8.47917 9.97498 8.71667 9.97498 9.00001C9.97498 9.28334 10.0708 9.52084 10.2625 9.71251C10.4541 9.90418 10.6916 10 10.975 10Z" fill="#0C0B4A"/>
</g>
</svg>
