<svg width="24" height="24" viewBox="0 0 24 24" fill="none" xmlns="http://www.w3.org/2000/svg">
<mask id="mask0_51_2323" style="mask-type:alpha" maskUnits="userSpaceOnUse" x="0" y="0" width="24" height="24">
<rect width="24" height="24" fill="#D9D9D9"/>
</mask>
<g mask="url(#mask0_51_2323)">
<path d="M5.39997 9.49998C6.04997 9.49998 6.66664 9.61664 7.24997 9.84998C7.83331 10.0833 8.36664 10.425 8.84997 10.875L18.4 20H19C19.2833 20 19.5208 19.9041 19.7125 19.7125C19.9041 19.5208 20 19.2833 20 19C20 18.8666 19.9875 18.725 19.9625 18.575C19.9375 18.425 19.85 18.275 19.7 18.125L15.125 13.55L13.35 8.19998L11.5 8.64998C10.8666 8.81664 10.2916 8.69998 9.77497 8.29998C9.25831 7.89998 8.99997 7.37498 8.99997 6.72498V4.62498L8.29997 4.27498L4.44997 9.42498C4.43331 9.44164 4.42497 9.45414 4.42497 9.46248C4.42497 9.47081 4.41664 9.48331 4.39997 9.49998H5.39997ZM5.39997 11.5H4.24997C4.29997 11.6166 4.36247 11.725 4.43747 11.825C4.51247 11.925 4.59997 12.0166 4.69997 12.1L12.8 19.475C12.9833 19.6583 13.1916 19.7916 13.425 19.875C13.6583 19.9583 13.9 20 14.15 20H15.5L7.47497 12.325C7.19164 12.0416 6.8708 11.8333 6.51247 11.7C6.15414 11.5666 5.78331 11.5 5.39997 11.5ZM14.15 22C13.65 22 13.175 21.9083 12.725 21.725C12.275 21.5416 11.8583 21.2833 11.475 20.95L3.34997 13.575C2.58331 12.875 2.15414 12.0166 2.06247 11C1.97081 9.98331 2.23331 9.05831 2.84997 8.22498L6.69997 3.07498C6.98331 2.69164 7.36247 2.43748 7.83747 2.31248C8.31247 2.18748 8.76664 2.24164 9.19997 2.47498L9.89997 2.82498C10.25 3.00831 10.5208 3.25831 10.7125 3.57498C10.9041 3.89164 11 4.24164 11 4.62498V6.72498L12.85 6.24998C13.35 6.11664 13.8333 6.17914 14.3 6.43748C14.7666 6.69581 15.0833 7.06664 15.25 7.54998L16.875 12.45L21.125 16.7C21.4583 17.0333 21.6875 17.3916 21.8125 17.775C21.9375 18.1583 22 18.5666 22 19C22 19.8333 21.7083 20.5416 21.125 21.125C20.5416 21.7083 19.8333 22 19 22H14.15Z" fill="#0C0B4A"/>
</g>
</svg>
