<svg width="24" height="24" viewBox="0 0 24 24" fill="none" xmlns="http://www.w3.org/2000/svg">
<mask id="mask0_51_2319" style="mask-type:alpha" maskUnits="userSpaceOnUse" x="0" y="0" width="24" height="24">
<rect width="24" height="24" fill="#D9D9D9"/>
</mask>
<g mask="url(#mask0_51_2319)">
<path d="M5 5V3H19V5H5ZM12 21C10.05 21 8.39583 20.3208 7.0375 18.9625C5.67917 17.6042 5 15.95 5 14C5 12.05 5.67917 10.3958 7.0375 9.0375C8.39583 7.67917 10.05 7 12 7C13.95 7 15.6042 7.67917 16.9625 9.0375C18.3208 10.3958 19 12.05 19 14C19 15.95 18.3208 17.6042 16.9625 18.9625C15.6042 20.3208 13.95 21 12 21ZM12 18.5C13.25 18.5 14.3125 18.0625 15.1875 17.1875C16.0625 16.3125 16.5 15.25 16.5 14C16.5 12.75 16.0625 11.6875 15.1875 10.8125C14.3125 9.9375 13.25 9.5 12 9.5C10.75 9.5 9.6875 9.9375 8.8125 10.8125C7.9375 11.6875 7.5 12.75 7.5 14C7.5 15.25 7.9375 16.3125 8.8125 17.1875C9.6875 18.0625 10.75 18.5 12 18.5Z" fill="#0C0B4A"/>
</g>
</svg>
