<svg width="70" height="70" viewBox="0 0 70 70" fill="none" xmlns="http://www.w3.org/2000/svg">
<path d="M15.4808 59.7916C14.0075 59.7916 12.7604 59.2812 11.7396 58.2604C10.7187 57.2395 10.2083 55.9925 10.2083 54.5192V15.4809C10.2083 14.0076 10.7187 12.7605 11.7396 11.7397C12.7604 10.7188 14.0075 10.2084 15.4808 10.2084H54.5191C55.9924 10.2084 57.2394 10.7188 58.2603 11.7397C59.2811 12.7605 59.7915 14.0076 59.7915 15.4809V54.5192C59.7915 55.9925 59.2811 57.2395 58.2603 58.2604C57.2394 59.2812 55.9924 59.7916 54.5191 59.7916H15.4808ZM15.4808 55.4167H54.5191C54.7435 55.4167 54.9492 55.3232 55.1362 55.1363C55.3231 54.9492 55.4166 54.7435 55.4166 54.5192V15.4809C55.4166 15.2565 55.3231 15.0508 55.1362 14.8638C54.9492 14.6768 54.7435 14.5834 54.5191 14.5834H15.4808C15.2564 14.5834 15.0507 14.6768 14.8637 14.8638C14.6767 15.0508 14.5833 15.2565 14.5833 15.4809V54.5192C14.5833 54.7435 14.6767 54.9492 14.8637 55.1363C15.0507 55.3232 15.2564 55.4167 15.4808 55.4167ZM19.6876 48.8541H50.5366L40.9454 36.0658L32.7564 46.7228L26.923 39.263L19.6876 48.8541Z" fill="#F9F1F1"/>
</svg>
