<svg width="200" height="200" viewBox="0 0 200 200" fill="none" xmlns="http://www.w3.org/2000/svg">
<mask id="mask0_88_5776" style="mask-type:alpha" maskUnits="userSpaceOnUse" x="0" y="0" width="200" height="200">
<rect width="200" height="200" fill="#D9D9D9"/>
</mask>
<g mask="url(#mask0_88_5776)">
<path d="M37.1794 58.3333V30.1281L65.3846 44.2308L37.1794 58.3333ZM142.949 58.3333V30.1281L171.154 44.2308L142.949 58.3333ZM93.5898 51.2821V23.0768L121.795 37.1793L93.5898 51.2821ZM87.5 177.404C77.906 177.019 69.2281 176.205 61.4662 174.96C53.7046 173.715 47.0433 172.169 41.4823 170.321C35.9215 168.472 31.624 166.384 28.5898 164.055C25.5555 161.725 24.0383 159.284 24.0383 156.731V88.141C24.0383 85.203 25.9321 82.4812 29.7196 79.9758C33.5069 77.4705 38.7767 75.2857 45.5287 73.4214C52.281 71.5571 60.2992 70.0721 69.5833 68.9662C78.8675 67.8605 89.0064 67.3077 100 67.3077C110.994 67.3077 121.132 67.8605 130.417 68.9662C139.701 70.0721 147.719 71.5571 154.471 73.4214C161.223 75.2857 166.493 77.4705 170.28 79.9758C174.068 82.4812 175.962 85.203 175.962 88.141V156.731C175.962 159.284 174.445 161.725 171.41 164.055C168.376 166.384 164.079 168.472 158.518 170.321C152.957 172.169 146.295 173.715 138.534 174.96C130.772 176.205 122.094 177.019 112.5 177.404V144.231H87.5V177.404ZM100 100.641C113.793 100.641 126.707 99.5486 138.742 97.3637C150.777 95.1789 159.765 92.2969 165.705 88.7179C163.889 85.7798 157.249 82.8659 145.785 79.976C134.322 77.086 119.06 75.641 100 75.641C80.9401 75.641 65.6784 77.086 54.2148 79.976C42.751 82.8659 36.1111 85.7798 34.295 88.7179C40.2351 92.2969 48.6085 95.1789 59.415 97.3637C70.2217 99.5486 83.75 100.641 100 100.641ZM79.1667 168.461V135.897H120.833V168.461C133.974 167.457 144.541 165.719 152.532 163.245C160.523 160.772 165.555 158.328 167.628 155.914V97.0512C158.494 101.282 148.323 104.327 137.115 106.186C125.908 108.045 113.536 108.974 100 108.974C86.4636 108.974 74.0918 108.045 62.8846 106.186C51.6774 104.327 41.5065 101.282 32.3719 97.0512V155.914C34.4445 158.328 39.156 160.772 46.5065 163.245C53.8569 165.719 64.7436 167.457 79.1667 168.461Z" fill="#C1A9A4"/>
</g>
</svg>
